<svg xmlns="http://www.w3.org/2000/svg" xmlns:xlink="http://www.w3.org/1999/xlink" contentStyleType="text/css" data-diagram-type="CLASS" height="591px" preserveAspectRatio="none" style="width:738px;height:591px;background:#FFFFFF;" version="1.1" viewBox="0 0 738 591" width="738px" zoomAndPan="magnify"><?plantuml 1.2026.5?><defs/><g><g class="title" data-source-line="34"><text fill="#000000" font-family="'Segoe UI'" font-size="14" font-weight="700" lengthAdjust="spacing" textLength="351.5039" x="189.893" y="22.9951">Test: VP Base + BCE Colors &#8212; Class Diagram</text></g><!--cluster Boundary--><g class="cluster" data-qualified-name="Boundary" data-source-line="36" id="ent0001"><rect fill="#DDEEFF" height="262" rx="2.5" ry="2.5" style="stroke:#000000;stroke-width:1.5;" width="266.16" x="7" y="44.2969"/><text fill="#000000" font-family="'Segoe UI'" font-size="13" font-weight="700" lengthAdjust="spacing" textLength="70.313" x="104.9235" y="58.3638">Boundary</text></g><!--cluster DAO--><g class="cluster" data-qualified-name="DAO" data-source-line="50" id="ent0004"><rect fill="#FFE0B2" height="224" rx="2.5" ry="2.5" style="stroke:#000000;stroke-width:1.5;" width="495.9" x="68.59" y="330.2969"/><text fill="#000000" font-family="'Segoe UI'" font-size="13" font-weight="700" lengthAdjust="spacing" textLength="31.9033" x="300.5883" y="344.3638">DAO</text></g><!--cluster Entity--><g class="cluster" data-qualified-name="Entity" data-source-line="67" id="ent0010"><rect fill="#FFF3CD" height="270" rx="2.5" ry="2.5" style="stroke:#000000;stroke-width:1.5;" width="135.8" x="588.49" y="307.2969"/><text fill="#000000" font-family="'Segoe UI'" font-size="13" font-weight="700" lengthAdjust="spacing" textLength="43.4941" x="634.6429" y="321.3638">Entity</text></g><!--class FrmRoom--><g class="entity" data-qualified-name="Boundary.FrmRoom" data-source-line="38" id="ent0002"><rect fill="#DDEEFF" height="86.5313" rx="2.5" ry="2.5" style="stroke:#000000;stroke-width:1;" width="218.1572" x="31" y="196.0269"/><ellipse cx="101.8413" cy="213.8316" fill="#ADD1B2" rx="10" ry="10" style="stroke:#181818;stroke-width:1;"/><path d="M103.6694,218.0816 Q103.2632,218.2847 102.8101,218.3941 Q102.3569,218.5034 101.8726,218.5034 Q100.0913,218.5034 99.1538,217.3472 Q98.2319,216.1753 98.2319,213.9722 Q98.2319,211.7534 99.1538,210.5972 Q100.0913,209.4253 101.8726,209.4253 Q102.3569,209.4253 102.8101,209.5347 Q103.2788,209.6284 103.6694,209.8472 L103.6694,211.7691 Q103.2319,211.3628 102.8101,211.1753 Q102.3882,210.9722 101.9507,210.9722 Q100.9976,210.9722 100.5132,211.7378 Q100.0288,212.4878 100.0288,213.9722 Q100.0288,215.4409 100.5132,216.1909 Q100.9976,216.9409 101.9507,216.9409 Q102.3882,216.9409 102.8101,216.7534 Q103.2319,216.5659 103.6694,216.1597 L103.6694,218.0816 Z " fill="#000000"/><text fill="#000000" font-family="Segoe UI" font-size="12" font-style="italic" lengthAdjust="spacing" textLength="72.4746" x="118.8413" y="212.1655">&#171;Boundary&#187;</text><text fill="#000000" font-family="'Segoe UI'" font-size="10" lengthAdjust="spacing" textLength="48.5303" x="130.8135" y="224.2779">FrmRoom</text><line style="stroke:#000000;stroke-width:1;" x1="32" x2="248.1572" y1="231.6363" y2="231.6363"/><text fill="#000000" font-family="'Segoe UI'" font-size="10" lengthAdjust="spacing" textLength="114.1748" x="37" y="244.9185">-txtRoomId : JTextField</text><text fill="#000000" font-family="'Segoe UI'" font-size="10" lengthAdjust="spacing" textLength="100.9619" x="37" y="256.5591">-btnSearch : JButton</text><line style="stroke:#000000;stroke-width:1;" x1="32" x2="248.1572" y1="262.9175" y2="262.9175"/><text fill="#000000" font-family="'Segoe UI'" font-size="10" lengthAdjust="spacing" textLength="206.1572" x="37" y="276.1997">+actionPerformed(e : ActionEvent) : void</text></g><!--class FrmBooking--><g class="entity" data-qualified-name="Boundary.FrmBooking" data-source-line="43" id="ent0003"><rect fill="#DDEEFF" height="74.8906" rx="2.5" ry="2.5" style="stroke:#000000;stroke-width:1;" width="218.1572" x="31" y="85.8469"/><ellipse cx="101.8413" cy="103.6516" fill="#ADD1B2" rx="10" ry="10" style="stroke:#181818;stroke-width:1;"/><path d="M103.6694,107.9016 Q103.2632,108.1047 102.8101,108.2141 Q102.3569,108.3234 101.8726,108.3234 Q100.0913,108.3234 99.1538,107.1672 Q98.2319,105.9953 98.2319,103.7922 Q98.2319,101.5734 99.1538,100.4172 Q100.0913,99.2453 101.8726,99.2453 Q102.3569,99.2453 102.8101,99.3547 Q103.2788,99.4484 103.6694,99.6672 L103.6694,101.5891 Q103.2319,101.1828 102.8101,100.9953 Q102.3882,100.7922 101.9507,100.7922 Q100.9976,100.7922 100.5132,101.5578 Q100.0288,102.3078 100.0288,103.7922 Q100.0288,105.2609 100.5132,106.0109 Q100.9976,106.7609 101.9507,106.7609 Q102.3882,106.7609 102.8101,106.5734 Q103.2319,106.3859 103.6694,105.9797 L103.6694,107.9016 Z " fill="#000000"/><text fill="#000000" font-family="Segoe UI" font-size="12" font-style="italic" lengthAdjust="spacing" textLength="72.4746" x="118.8413" y="101.9855">&#171;Boundary&#187;</text><text fill="#000000" font-family="'Segoe UI'" font-size="10" lengthAdjust="spacing" textLength="59.9561" x="125.1006" y="114.0979">FrmBooking</text><line style="stroke:#000000;stroke-width:1;" x1="32" x2="248.1572" y1="121.4563" y2="121.4563"/><text fill="#000000" font-family="'Segoe UI'" font-size="10" lengthAdjust="spacing" textLength="102.4072" x="37" y="134.7385">-tblBookings : JTable</text><line style="stroke:#000000;stroke-width:1;" x1="32" x2="248.1572" y1="141.0969" y2="141.0969"/><text fill="#000000" font-family="'Segoe UI'" font-size="10" lengthAdjust="spacing" textLength="206.1572" x="37" y="154.3791">+actionPerformed(e : ActionEvent) : void</text></g><!--class DAO--><g class="entity" data-qualified-name="DAO.DAO" data-source-line="51" id="ent0005"><rect fill="#FFFFFF" height="69.2813" rx="2.5" ry="2.5" style="stroke:#000000;stroke-width:1;" width="110.9795" x="84.59" y="416.6569"/><ellipse cx="124.9453" cy="431.6569" fill="#A9DCDF" rx="10" ry="10" style="stroke:#181818;stroke-width:1;"/><path d="M124.5547,428.735 L123.7422,432.3131 L125.3828,432.3131 L124.5547,428.735 Z M123.5078,427.1569 L125.6172,427.1569 L127.9766,435.9069 L126.2422,435.9069 L125.7109,433.7506 L123.3984,433.7506 L122.8672,435.9069 L121.1328,435.9069 L123.5078,427.1569 Z " fill="#000000"/><text fill="#000000" font-family="'Segoe UI'" font-size="10" font-style="italic" lengthAdjust="spacing" textLength="22.4121" x="143.8021" y="435.1188">DAO</text><line style="stroke:#000000;stroke-width:1;" x1="85.59" x2="194.5695" y1="446.6569" y2="446.6569"/><text fill="#000000" font-family="'Segoe UI'" font-size="10" lengthAdjust="spacing" textLength="98.9795" x="90.59" y="459.9391">#conn : Connection</text><line style="stroke:#000000;stroke-width:1;" x1="85.59" x2="194.5695" y1="466.2975" y2="466.2975"/><text fill="#000000" font-family="'Segoe UI'" font-size="10" lengthAdjust="spacing" textLength="38.5938" x="90.59" y="479.5797">+DAO()</text></g><!--class RoomDao--><g class="entity" data-qualified-name="DAO.RoomDao" data-source-line="56" id="ent0006"><rect fill="#FFFFFF" height="61.2813" rx="2.5" ry="2.5" style="stroke:#000000;stroke-width:1;" width="139.7832" x="354.93" y="468.6569"/><ellipse cx="396.3856" cy="483.6569" fill="#ADD1B2" rx="10" ry="10" style="stroke:#181818;stroke-width:1;"/><path d="M398.2137,487.9069 Q397.8074,488.11 397.3543,488.2194 Q396.9012,488.3288 396.4168,488.3288 Q394.6356,488.3288 393.6981,487.1725 Q392.7762,486.0006 392.7762,483.7975 Q392.7762,481.5788 393.6981,480.4225 Q394.6356,479.2506 396.4168,479.2506 Q396.9012,479.2506 397.3543,479.36 Q397.8231,479.4538 398.2137,479.6725 L398.2137,481.5944 Q397.7762,481.1881 397.3543,481.0006 Q396.9324,480.7975 396.4949,480.7975 Q395.5418,480.7975 395.0574,481.5631 Q394.5731,482.3131 394.5731,483.7975 Q394.5731,485.2663 395.0574,486.0163 Q395.5418,486.7663 396.4949,486.7663 Q396.9324,486.7663 397.3543,486.5788 Q397.7762,486.3913 398.2137,485.985 L398.2137,487.9069 Z " fill="#000000"/><text fill="#000000" font-family="'Segoe UI'" font-size="10" lengthAdjust="spacing" textLength="48.8721" x="415.3856" y="487.1188">RoomDao</text><line style="stroke:#000000;stroke-width:1;" x1="355.93" x2="493.7132" y1="498.6569" y2="498.6569"/><text fill="#000000" font-family="'Segoe UI'" font-size="10" lengthAdjust="spacing" textLength="127.7832" x="360.93" y="511.9391">+findById(id : int) : Room</text><text fill="#000000" font-family="'Segoe UI'" font-size="10" lengthAdjust="spacing" textLength="120.4541" x="360.93" y="523.5797">+findAll() : List&lt;Room&gt;</text></g><!--class BookingDao--><g class="entity" data-qualified-name="DAO.BookingDao" data-source-line="60" id="ent0008"><rect fill="#FFFFFF" height="61.2813" rx="2.5" ry="2.5" style="stroke:#000000;stroke-width:1;" width="231.3359" x="309.16" y="372.6569"/><ellipse cx="390.679" cy="387.6569" fill="#ADD1B2" rx="10" ry="10" style="stroke:#181818;stroke-width:1;"/><path d="M392.5072,391.9069 Q392.1009,392.11 391.6478,392.2194 Q391.1947,392.3288 390.7103,392.3288 Q388.929,392.3288 387.9915,391.1725 Q387.0697,390.0006 387.0697,387.7975 Q387.0697,385.5788 387.9915,384.4225 Q388.929,383.2506 390.7103,383.2506 Q391.1947,383.2506 391.6478,383.36 Q392.1165,383.4538 392.5072,383.6725 L392.5072,385.5944 Q392.0697,385.1881 391.6478,385.0006 Q391.2259,384.7975 390.7884,384.7975 Q389.8353,384.7975 389.3509,385.5631 Q388.8665,386.3131 388.8665,387.7975 Q388.8665,389.2663 389.3509,390.0163 Q389.8353,390.7663 390.7884,390.7663 Q391.2259,390.7663 391.6478,390.5788 Q392.0697,390.3913 392.5072,389.985 L392.5072,391.9069 Z " fill="#000000"/><text fill="#000000" font-family="'Segoe UI'" font-size="10" lengthAdjust="spacing" textLength="60.2979" x="409.679" y="391.1188">BookingDao</text><line style="stroke:#000000;stroke-width:1;" x1="310.16" x2="539.4959" y1="402.6569" y2="402.6569"/><text fill="#000000" font-family="'Segoe UI'" font-size="10" lengthAdjust="spacing" textLength="219.3359" x="315.16" y="415.9391">+findByRoom(roomId : int) : List&lt;Booking&gt;</text><text fill="#000000" font-family="'Segoe UI'" font-size="10" lengthAdjust="spacing" textLength="145.7227" x="315.16" y="427.5797">+save(b : Booking) : boolean</text></g><!--class Room--><g class="entity" data-qualified-name="Entity.Room" data-source-line="69" id="ent0011"><rect fill="#FFFFFF" height="84.5625" rx="2.5" ry="2.5" style="stroke:#000000;stroke-width:1;" width="85.9063" x="613.44" y="469.0169"/><ellipse cx="639.5812" cy="484.0169" fill="#ADD1B2" rx="10" ry="10" style="stroke:#181818;stroke-width:1;"/><path d="M641.4093,488.2669 Q641.0031,488.47 640.55,488.5794 Q640.0968,488.6888 639.6125,488.6888 Q637.8312,488.6888 636.8937,487.5325 Q635.9718,486.3606 635.9718,484.1575 Q635.9718,481.9388 636.8937,480.7825 Q637.8312,479.6106 639.6125,479.6106 Q640.0968,479.6106 640.55,479.72 Q641.0187,479.8138 641.4093,480.0325 L641.4093,481.9544 Q640.9718,481.5481 640.55,481.3606 Q640.1281,481.1575 639.6906,481.1575 Q638.7375,481.1575 638.2531,481.9231 Q637.7687,482.6731 637.7687,484.1575 Q637.7687,485.6263 638.2531,486.3763 Q638.7375,487.1263 639.6906,487.1263 Q640.1281,487.1263 640.55,486.9388 Q640.9718,486.7513 641.4093,486.345 L641.4093,488.2669 Z " fill="#000000"/><text fill="#000000" font-family="'Segoe UI'" font-size="10" lengthAdjust="spacing" textLength="28.9258" x="655.2793" y="487.4788">Room</text><line style="stroke:#000000;stroke-width:1;" x1="614.44" x2="698.3463" y1="499.0169" y2="499.0169"/><text fill="#000000" font-family="'Segoe UI'" font-size="10" lengthAdjust="spacing" textLength="35.498" x="619.44" y="512.2991">-id : int</text><text fill="#000000" font-family="'Segoe UI'" font-size="10" lengthAdjust="spacing" textLength="71.5381" x="619.44" y="523.9397">-name : String</text><text fill="#000000" font-family="'Segoe UI'" font-size="10" lengthAdjust="spacing" textLength="73.9063" x="619.44" y="535.5804">-status : String</text><text fill="#000000" font-family="'Segoe UI'" font-size="10" lengthAdjust="spacing" textLength="71.8213" x="619.44" y="547.221">+getter/setter</text></g><!--class Booking--><g class="entity" data-qualified-name="Entity.Booking" data-source-line="75" id="ent0012"><rect fill="#FFFFFF" height="84.5625" rx="2.5" ry="2.5" style="stroke:#000000;stroke-width:1;" width="87.8008" x="612.49" y="349.0169"/><ellipse cx="634.3421" cy="364.0169" fill="#ADD1B2" rx="10" ry="10" style="stroke:#181818;stroke-width:1;"/><path d="M636.1703,368.2669 Q635.764,368.47 635.3109,368.5794 Q634.8578,368.6888 634.3734,368.6888 Q632.5921,368.6888 631.6546,367.5325 Q630.7328,366.3606 630.7328,364.1575 Q630.7328,361.9388 631.6546,360.7825 Q632.5921,359.6106 634.3734,359.6106 Q634.8578,359.6106 635.3109,359.72 Q635.7796,359.8138 636.1703,360.0325 L636.1703,361.9544 Q635.7328,361.5481 635.3109,361.3606 Q634.889,361.1575 634.4515,361.1575 Q633.4984,361.1575 633.014,361.9231 Q632.5296,362.6731 632.5296,364.1575 Q632.5296,365.6263 633.014,366.3763 Q633.4984,367.1263 634.4515,367.1263 Q634.889,367.1263 635.3109,366.9388 Q635.7328,366.7513 636.1703,366.345 L636.1703,368.2669 Z " fill="#000000"/><text fill="#000000" font-family="'Segoe UI'" font-size="10" lengthAdjust="spacing" textLength="40.3516" x="649.0871" y="367.4788">Booking</text><line style="stroke:#000000;stroke-width:1;" x1="613.49" x2="699.2908" y1="379.0169" y2="379.0169"/><text fill="#000000" font-family="'Segoe UI'" font-size="10" lengthAdjust="spacing" textLength="35.498" x="618.49" y="392.2991">-id : int</text><text fill="#000000" font-family="'Segoe UI'" font-size="10" lengthAdjust="spacing" textLength="61.7578" x="618.49" y="403.9397">-roomId : int</text><text fill="#000000" font-family="'Segoe UI'" font-size="10" lengthAdjust="spacing" textLength="75.8008" x="618.49" y="415.5804">-checkIn : Date</text><text fill="#000000" font-family="'Segoe UI'" font-size="10" lengthAdjust="spacing" textLength="71.8213" x="618.49" y="427.221">+getter/setter</text></g><!--reverse link DAO to RoomDao--><g class="link" data-entity-1="ent0005" data-entity-2="ent0006" data-link-type="extension" data-source-line="57" id="lnk7"><path d="M214,480.1769 C259.43,480.1769 305.76,480.1769 354.65,480.1769" fill="none" id="DAO-backto-RoomDao" style="stroke:#000000;stroke-width:1;"/><polygon fill="none" points="196,480.1769,214,486.1769,214,474.1769,196,480.1769" style="stroke:#000000;stroke-width:1;stroke-linejoin:miter;stroke-miterlimit:10;"/></g><!--reverse link DAO to BookingDao--><g class="link" data-entity-1="ent0005" data-entity-2="ent0008" data-link-type="extension" data-source-line="61" id="lnk9"><path d="M214,425.2969 C246.15,425.2969 269.76,425.2969 308.67,425.2969" fill="none" id="DAO-backto-BookingDao" style="stroke:#000000;stroke-width:1;"/><polygon fill="none" points="196,425.2969,214,431.2969,214,419.2969,196,425.2969" style="stroke:#000000;stroke-width:1;stroke-linejoin:miter;stroke-miterlimit:10;"/></g><!--link FrmRoom to RoomDao--><g class="link" data-entity-1="ent0002" data-entity-2="ent0006" data-link-type="dependency" data-source-line="84" id="lnk13"><path codeLine="84" d="M223.29,282.9669 C223.29,350.9669 223.29,474.4169 223.29,474.4169 C223.29,474.4169 291.46,474.4169 349.62,474.4169" fill="none" id="FrmRoom-to-RoomDao" style="stroke:#000000;stroke-width:1;"/><polygon fill="#000000" points="354.62,474.4169,345.62,470.4169,349.62,474.4169,345.62,478.4169,354.62,474.4169" style="stroke:#000000;stroke-width:1;stroke-linejoin:miter;stroke-miterlimit:10;"/></g><!--link FrmBooking to BookingDao--><g class="link" data-entity-1="ent0003" data-entity-2="ent0008" data-link-type="dependency" data-source-line="85" id="lnk14"><path codeLine="85" d="M249.53,123.2969 C329.97,123.2969 425.29,123.2969 425.29,123.2969 C425.29,123.2969 425.29,294.3569 425.29,367.2669" fill="none" id="FrmBooking-to-BookingDao" style="stroke:#000000;stroke-width:1;"/><polygon fill="#000000" points="425.29,372.2669,429.29,363.2669,425.29,367.2669,421.29,363.2669,425.29,372.2669" style="stroke:#000000;stroke-width:1;stroke-linejoin:miter;stroke-miterlimit:10;"/></g><!--link RoomDao to Room--><g class="link" data-entity-1="ent0006" data-entity-2="ent0011" data-link-type="dependency" data-source-line="86" id="lnk15"><path codeLine="86" d="M494.93,499.4769 C533.4,499.4769 574.89,499.4769 608.08,499.4769" fill="none" id="RoomDao-to-Room" style="stroke:#000000;stroke-width:1;"/><polygon fill="#000000" points="613.08,499.4769,604.08,495.4769,608.08,499.4769,604.08,503.4769,613.08,499.4769" style="stroke:#000000;stroke-width:1;stroke-linejoin:miter;stroke-miterlimit:10;"/></g><!--link BookingDao to Booking--><g class="link" data-entity-1="ent0008" data-entity-2="ent0012" data-link-type="dependency" data-source-line="87" id="lnk16"><path codeLine="87" d="M540.95,403.1169 C566.34,403.1169 586.71,403.1169 607.17,403.1169" fill="none" id="BookingDao-to-Booking" style="stroke:#000000;stroke-width:1;"/><polygon fill="#000000" points="612.17,403.1169,603.17,399.1169,607.17,403.1169,603.17,407.1169,612.17,403.1169" style="stroke:#000000;stroke-width:1;stroke-linejoin:miter;stroke-miterlimit:10;"/></g><?plantuml-src dLJBRjim4BphAnREnK4Gr4akHH0Oi2mBSD57KAVjcHBN4c6ADCXr4hS8q8_e5_PBIb9Y8YTsYbONcpl3tT7ihYGk2KY34LLDm8N1aeHMYLq9jMQ6DI25Gjgk4RIXMlS0ZaksaPHhHHzPWp1OOAKHlim7-qaByHtXxBm7sffnVITK1KicBVOGPeo-csgf3HoDmlDCqIxM0ql9h8KV2K3AobLbz4RnZfo7noFQS3IxAG2yndsnLlUPEqs8Z2WsX4_XKJyyBxKAuT5ZaPjQb2k5JjBPIqbNLwd_pynsF8QZB9lDMddFMLFThBL2HQ_JiiadJyZpsIWztvz7aT7oTT9CaQ1joyalfbdoqBTtxUYimc3mWhOImKyCKvN47RiktEa3k_ycEDNmDdZvR_rmLMl14R1PqnOQR0eqDacSDbVp1YrTmjThbzCYd40wdK6uRk7tprym3JEG2LOvoKaIDG-YsuFeOdWDqXLIZIOSe1kWt3IVjMvWfqKj0U2KxicZSmwNyEu6xoaNA7b42r8BPAQiFPfkYDm-jT092zjrZMQfJODyY8uo2R7PhUlliJlUQj5cUjYLasgzygjoG54XEu8DcbWH6l9VHH-y-O-ckQaQn7a9zLXXoRYSdJI7TpAEtFWhbyoDcUe-8w6-OmoFapRtNhEzbndJu8n4nViftUsbK3pTplbGUBT5gzVVw1CcKWvz_BsmTEN1yGiBEtl-KiVV7PhOswvQoDhT7qU-PRSuB1pQ0PvOQ2sHgGDEjfirY8jrUFZ2v3ssDhvtF2l_iRrqssTSrHYqn6XZduTFN792yyQ6dqEM72xLDoB6oXhBrTptEME4hnSAxnzNwVHq73kTzERPXvzwayHPYEoarxSUzGy0?></g></svg>